HIERARCHY
ROOT joint_Root
{
	OFFSET 0.0 0.0 0.0
	CHANNELS 6 Xposition Yposition Zposition Zrotation Xrotation Yrotation 
	JOINT Hips
	{
		OFFSET -17.1583 93.1646 452.98
		CHANNELS 6 Xposition Yposition Zposition Zrotation Xrotation Yrotation 
		JOINT Spine
		{
			OFFSET 15.7357 0.0 0.0
			CHANNELS 6 Xposition Yposition Zposition Zrotation Xrotation Yrotation 
			JOINT Chest
			{
				OFFSET 8.98455 -0.406207 0.0
				CHANNELS 6 Xposition Yposition Zposition Zrotation Xrotation Yrotation 
				JOINT Neck
				{
					OFFSET 16.3773 0.0 0.0
					CHANNELS 6 Xposition Yposition Zposition Zrotation Xrotation Yrotation 
					JOINT Head
					{
						OFFSET 6.45672 0.0 0.0
						CHANNELS 6 Xposition Yposition Zposition Zrotation Xrotation Yrotation 
						End Site
						{
							OFFSET 0.0 0.0 0.0
						}
					}
				}
				JOINT Shoulder_L
				{
					OFFSET 12.9942 -0.242716 4.98039
					CHANNELS 6 Xposition Yposition Zposition Zrotation Xrotation Yrotation 
					JOINT UpperArm_L
					{
						OFFSET 5.34809 0.0 0.0
						CHANNELS 6 Xposition Yposition Zposition Zrotation Xrotation Yrotation 
						JOINT LowerArm_L
						{
							OFFSET 24.3286 1.87007e-05 0.0
							CHANNELS 6 Xposition Yposition Zposition Zrotation Xrotation Yrotation 
							JOINT Hand_L
							{
								OFFSET 22.2916 0.0 0.0
								CHANNELS 6 Xposition Yposition Zposition Zrotation Xrotation Yrotation 
								End Site
								{
									OFFSET 0.0 0.0 0.0
								}
							}
						}
					}
				}
				JOINT Shoulder_R
				{
					OFFSET 12.9945 -0.242716 -4.98039
					CHANNELS 6 Xposition Yposition Zposition Zrotation Xrotation Yrotation 
					JOINT UpperArm_R
					{
						OFFSET -5.34813 0.0 0.0
						CHANNELS 6 Xposition Yposition Zposition Zrotation Xrotation Yrotation 
						JOINT LowerArm_R
						{
							OFFSET -24.3289 0.000322201 0.0
							CHANNELS 6 Xposition Yposition Zposition Zrotation Xrotation Yrotation 
							JOINT Hand_R
							{
								OFFSET -22.2915 -0.000108084 0.0
								CHANNELS 6 Xposition Yposition Zposition Zrotation Xrotation Yrotation 
								End Site
								{
									OFFSET 0.0 0.0 0.0
								}
							}
						}
					}
				}
			}
		}
		JOINT UpperLeg_L
		{
			OFFSET -2.19248 -6.46944 0.0
			CHANNELS 6 Xposition Yposition Zposition Zrotation Xrotation Yrotation 
			JOINT LowerLeg_L
			{
				OFFSET 39.0811 0.0 -1.23785e-05
				CHANNELS 6 Xposition Yposition Zposition Zrotation Xrotation Yrotation 
				JOINT Foot_L
				{
					OFFSET 40.9854 0.0 -1.26872e-05
					CHANNELS 6 Xposition Yposition Zposition Zrotation Xrotation Yrotation 
					JOINT Toes_L
					{
						OFFSET 11.7543 0.0 0.0
						CHANNELS 6 Xposition Yposition Zposition Zrotation Xrotation Yrotation 
						End Site
						{
							OFFSET 0.0 0.0 0.0
						}
					}
				}
			}
		}
		JOINT UpperLeg_R
		{
			OFFSET -2.19251 6.46944 0.0
			CHANNELS 6 Xposition Yposition Zposition Zrotation Xrotation Yrotation 
			JOINT LowerLeg_R
			{
				OFFSET -39.0811 -0.00228153 -0.0401928
				CHANNELS 6 Xposition Yposition Zposition Zrotation Xrotation Yrotation 
				JOINT Foot_R
				{
					OFFSET -40.9854 0.0 0.0
					CHANNELS 6 Xposition Yposition Zposition Zrotation Xrotation Yrotation 
					JOINT Toes_R
					{
						OFFSET -11.7543 0.0 0.0
						CHANNELS 6 Xposition Yposition Zposition Zrotation Xrotation Yrotation 
						End Site
						{
							OFFSET 0.0 0.0 0.0
						}
					}
				}
			}
		}
	}
}
MOTION
Frames:	7
Frame Time:	0.0333333
0.000000 0.000000 0.000000 0.000000 0.000000 -0.000000 0.614997 88.778200 -34.620000 83.615200 1.965070 -2.720050 15.735700 0.000005 -0.000001 19.948000 87.140700 -15.893000 8.984550 -0.406207 -0.000000 -5.610710 -5.841090 7.838160 16.377300 -0.000001 -0.000001 3.760910 4.797640 -2.541940 6.456720 -0.000001 -0.000000 6.443860 8.581640 -8.527350 12.994200 -0.242716 4.980390 -93.008600 9.368240 -72.106100 5.348090 -0.000007 -0.000001 -71.959800 -7.130340 3.407330 24.328600 0.000019 0.000005 29.130500 27.275200 -50.568200 22.291600 -0.000001 0.000005 49.751400 4.298070 19.821500 12.994500 -0.242716 -4.980390 89.074900 2.482740 -69.556300 -5.348130 -0.000001 -0.000004 -60.836700 -8.967000 9.851400 -24.328900 0.000322 -0.000009 0.214860 1.790020 -6.878550 -22.291500 -0.000108 -0.000004 47.339300 5.310040 -0.211109 -2.192480 -6.469440 -0.000000 -169.984000 -2.302420 3.217840 39.081100 -0.000007 -0.000012 0.108286 -0.115572 43.135200 40.985400 -0.000006 -0.000013 -7.576680 17.135900 -35.798700 11.754300 -0.000000 0.000003 -0.063504 -0.343010 -30.755600 -2.192510 6.469440 -0.000001 -170.589000 -4.941280 149.334000 -39.081100 -0.002282 -0.040193 0.072724 -0.102496 34.113800 -40.985400 0.000008 0.000006 -0.472387 -8.093890 -63.666800 -11.754300 -0.000006 -0.000006 -0.010371 0.274057 -5.438420
0.000000 0.000000 0.000000 0.000000 0.000000 -0.000000 0.171849 88.655900 -29.888100 82.594100 3.141580 -0.863068 15.735700 0.000005 -0.000001 30.800700 87.022200 -26.418800 8.984550 -0.406207 -0.000000 -4.498610 -5.579490 8.555790 16.377300 -0.000001 -0.000001 3.708750 4.221820 -2.048040 6.456720 -0.000001 -0.000000 6.474870 7.738940 -8.726610 12.994200 -0.242716 4.980390 -93.035400 9.562480 -72.296500 5.348090 -0.000007 -0.000001 -72.873700 -4.764180 3.323020 24.328600 0.000019 0.000005 24.038300 29.512000 -42.159200 22.291600 -0.000001 0.000005 49.579200 4.316800 19.531800 12.994500 -0.242716 -4.980390 88.951600 2.822400 -69.612900 -5.348130 -0.000001 -0.000004 -63.502700 -6.198940 6.296160 -24.328900 0.000322 -0.000009 0.163115 1.230950 -7.596710 -22.291500 -0.000108 -0.000004 46.415100 5.327200 -0.704360 -2.192480 -6.469440 -0.000000 -168.518000 0.005527 -3.156440 39.081100 -0.000007 -0.000012 0.243303 -0.180608 53.412400 40.985400 -0.000006 -0.000013 -14.338100 11.487400 -21.064000 11.754300 -0.000000 0.000003 0.002481 0.079533 -13.351200 -2.192510 6.469440 -0.000001 -168.566000 -2.919570 152.965000 -39.081100 -0.002282 -0.040193 0.096626 -0.123348 37.115600 -40.985400 0.000008 0.000006 -0.008759 -7.662470 -68.187600 -11.754300 -0.000006 -0.000006 -0.010585 0.275622 -5.374390
0.000000 0.000000 0.000000 0.000000 0.000000 -0.000000 -0.140486 89.069800 -25.536300 81.814400 4.211260 0.129378 15.735700 0.000005 -0.000001 38.993500 87.140100 -34.481600 8.984550 -0.406207 -0.000000 -3.964860 -4.903690 8.862810 16.377300 -0.000001 -0.000001 3.727700 3.493940 -1.246910 6.456720 -0.000001 -0.000000 6.628180 6.582260 -8.451180 12.994200 -0.242716 4.980390 -92.820200 8.983390 -72.490700 5.348090 -0.000007 -0.000001 -73.912700 -3.574090 3.272920 24.328600 0.000019 0.000005 19.891500 31.393000 -34.783900 22.291600 -0.000001 0.000005 48.735500 4.334720 19.252900 12.994500 -0.242716 -4.980390 88.915400 2.909080 -69.542800 -5.348130 -0.000001 -0.000004 -66.286700 -1.878020 2.724500 -24.328900 0.000322 -0.000009 0.226824 1.392720 -9.291620 -22.291500 -0.000108 -0.000004 45.543300 5.342050 -1.140500 -2.192480 -6.469440 -0.000000 -167.605000 1.555590 -9.807940 39.081100 -0.000007 -0.000012 0.267394 -0.137950 62.709900 40.985400 -0.000006 -0.000013 -13.888800 12.121400 -26.476600 11.754300 -0.000000 0.000003 0.002386 0.066868 -13.864700 -2.192510 6.469440 -0.000001 -167.286000 -0.946483 157.304000 -39.081100 -0.002282 -0.040193 0.048180 -0.060614 36.524800 -40.985400 0.000008 0.000006 -0.619400 -6.835640 -70.845400 -11.754300 -0.000006 -0.000006 -0.010436 0.274532 -5.419000
0.000000 0.000000 0.000000 0.000000 0.000000 -0.000000 -0.081798 89.725800 -21.366700 82.449700 4.101260 1.434770 15.735700 0.000005 -0.000001 53.855200 87.199800 -49.782300 8.984550 -0.406207 -0.000000 -3.102280 -3.687630 8.049600 16.377300 -0.000001 -0.000001 3.889500 2.955800 -0.349600 6.456720 -0.000001 -0.000000 6.793140 5.653210 -7.825770 12.994200 -0.242716 4.980390 -92.596800 8.278890 -72.517000 5.348090 -0.000007 -0.000001 -73.943500 -5.131320 4.352910 24.328600 0.000019 0.000005 16.875700 31.087000 -30.435000 22.291600 -0.000001 0.000005 47.719200 4.361470 18.833700 12.994500 -0.242716 -4.980390 88.932600 2.883120 -69.673700 -5.348130 -0.000001 -0.000004 -68.495100 3.221710 -0.940535 -24.328900 0.000322 -0.000009 0.206982 0.962745 -12.197600 -22.291500 -0.000108 -0.000004 44.564400 5.381490 -2.346470 -2.192480 -6.469440 -0.000000 -168.903000 1.869560 -15.133800 39.081100 -0.000007 -0.000012 0.196151 -0.079098 68.036900 40.985400 -0.000006 -0.000013 -10.593600 12.752300 -32.643600 11.754300 -0.000000 0.000003 0.002376 0.066099 -13.895900 -2.192510 6.469440 -0.000001 -167.790000 -0.698512 162.733000 -39.081100 -0.002282 -0.040193 0.010741 -0.010791 34.617200 -40.985400 0.000008 0.000006 -1.248970 -6.690660 -72.576300 -11.754300 -0.000006 -0.000006 -0.009707 0.269100 -5.641150
0.000000 0.000000 0.000000 0.000000 0.000000 -0.000000 0.196937 90.575900 -17.384100 83.953700 3.176870 2.085110 15.735700 0.000005 -0.000001 68.198800 87.197900 -64.884500 8.984550 -0.406207 -0.000000 -2.486150 -2.376900 6.577710 16.377300 -0.000001 -0.000001 4.130250 2.761940 0.461559 6.456720 -0.000001 -0.000000 6.815990 5.015860 -7.147220 12.994200 -0.242716 4.980390 -92.449700 7.710930 -72.315500 5.348090 -0.000007 -0.000001 -72.407200 -8.542130 6.275710 24.328600 0.000019 0.000005 16.207000 31.148800 -29.332400 22.291600 -0.000001 0.000005 47.766500 4.350210 19.010600 12.994500 -0.242716 -4.980390 88.955700 2.857620 -69.916500 -5.348130 -0.000001 -0.000004 -69.642300 8.330950 -4.630000 -24.328900 0.000322 -0.000009 0.131038 0.443291 -16.606000 -22.291500 -0.000108 -0.000004 43.465200 5.412860 -3.360920 -2.192480 -6.469440 -0.000000 -171.287000 1.660100 -19.722400 39.081100 -0.000007 -0.000012 0.181358 -0.068381 69.339500 40.985400 -0.000006 -0.000013 -9.524500 9.525780 -38.891500 11.754300 -0.000000 0.000003 0.002435 0.071706 -13.668600 -2.192510 6.469440 -0.000001 -169.326000 -0.791100 168.131000 -39.081100 -0.002282 -0.040193 0.004517 -0.001997 31.392200 -40.985400 0.000008 0.000006 -1.469280 -5.950550 -73.239000 -11.754300 -0.000006 -0.000006 -0.009328 0.266214 -5.759170
0.000000 0.000000 0.000000 0.000000 0.000000 -0.000000 0.575109 91.445500 -13.716500 85.714300 1.885500 1.977910 15.735700 0.000005 -0.000001 80.254500 87.241800 -77.747100 8.984550 -0.406207 -0.000000 -2.299280 -1.153590 4.991420 16.377300 -0.000001 -0.000001 4.400830 2.737720 0.815149 6.456720 -0.000001 -0.000000 6.658550 4.566810 -6.451510 12.994200 -0.242716 4.980390 -92.357400 7.222060 -71.867900 5.348090 -0.000007 -0.000001 -69.670500 -11.192100 8.508470 24.328600 0.000019 0.000005 15.998900 30.417700 -29.523400 22.291600 -0.000001 0.000005 47.074800 4.342320 19.134200 12.994500 -0.242716 -4.980390 89.018300 2.741850 -70.291500 -5.348130 -0.000001 -0.000004 -70.133800 11.613500 -7.738350 -24.328900 0.000322 -0.000009 0.213429 0.506602 -22.927800 -22.291500 -0.000108 -0.000004 43.327600 5.424150 -3.739560 -2.192480 -6.469440 -0.000000 -173.998000 1.086740 -23.809300 39.081100 -0.000007 -0.000012 0.129052 -0.055039 66.900100 40.985400 -0.000006 -0.000013 -7.280240 6.479580 -45.628700 11.754300 -0.000000 0.000003 0.002483 0.080454 -13.313900 -2.192510 6.469440 -0.000001 -171.336000 -1.102290 173.014000 -39.081100 -0.002282 -0.040193 0.000520 0.005438 27.141100 -40.985400 0.000008 0.000006 -1.648090 -4.811050 -73.022600 -11.754300 -0.000006 -0.000006 -0.008966 0.263408 -5.873860
0.000000 0.000000 0.000000 0.000000 0.000000 -0.000000 0.928090 92.178600 -10.231300 87.082400 0.375122 1.368470 15.735700 0.000005 -0.000001 92.710200 87.323200 -90.800600 8.984550 -0.406207 -0.000000 -2.416980 0.083462 3.820790 16.377300 -0.000001 -0.000001 4.580760 2.801360 0.881689 6.456720 -0.000001 -0.000000 6.438230 4.141340 -6.112190 12.994200 -0.242716 4.980390 -92.330800 6.938210 -71.379300 5.348090 -0.000007 -0.000001 -66.316900 -13.641400 10.252900 24.328600 0.000019 0.000005 15.673200 29.832900 -29.423700 22.291600 -0.000001 0.000005 46.681700 4.361830 18.828000 12.994500 -0.242716 -4.980390 89.085400 2.636370 -70.859600 -5.348130 -0.000001 -0.000004 -70.366500 12.560000 -9.943940 -24.328900 0.000322 -0.000009 0.692711 1.164380 -30.784100 -22.291500 -0.000108 -0.000004 42.731700 5.420570 -3.618350 -2.192480 -6.469440 -0.000000 -175.934000 0.881040 -26.835300 39.081100 -0.000007 -0.000012 0.095722 -0.054362 60.405200 40.985400 -0.000006 -0.000013 -6.399390 2.947630 -50.881800 11.754300 -0.000000 0.000003 0.002453 0.073986 -13.576100 -2.192510 6.469440 -0.000001 -173.101000 -0.856970 177.169000 -39.081100 -0.002282 -0.040193 -0.000414 0.008955 22.615300 -40.985400 0.000008 0.000006 -1.631580 -3.116080 -71.898800 -11.754300 -0.000006 -0.000006 -0.007434 0.251016 -6.380060
